<svg width="2560" height="1440" viewBox="0 0 2560 1440" fill="none" xmlns="http://www.w3.org/2000/svg">
<g clip-path="url(#clip0_1_2)">
<rect width="2560" height="1440" fill="white"/>
<rect width="2560" height="1440" fill="#282A36"/>
<rect width="2560" height="1440" fill="#44475A"/>
<path d="M2147.29 1152.35C2139.8 1152.35 2136.15 1147.79 2136.15 1140.78V1129.55C2136.15 1122.54 2139.8 1117.98 2147.29 1117.98C2154.78 1117.98 2158.42 1122.54 2158.42 1129.55V1140.78C2158.42 1147.79 2154.78 1152.35 2147.29 1152.35ZM2147.29 1148.46C2152.47 1148.46 2154.34 1145.48 2154.34 1140.3V1130.03C2154.34 1124.84 2152.47 1121.87 2147.29 1121.87C2142.1 1121.87 2140.23 1124.84 2140.23 1130.03V1140.3C2140.23 1145.48 2142.1 1148.46 2147.29 1148.46ZM2177.27 1152.35C2170.02 1152.35 2166.32 1148.41 2166.32 1141.4V1118.36H2170.4V1140.92C2170.4 1145.44 2171.84 1148.46 2177.27 1148.46C2182.69 1148.46 2184.13 1145.44 2184.13 1140.92V1118.36H2188.21V1141.4C2188.21 1148.41 2184.51 1152.35 2177.27 1152.35ZM2197.35 1151.96V1118.36H2206.66C2213.67 1118.36 2217.94 1121.15 2217.94 1128.59C2217.94 1135.26 2214.06 1137.42 2211.66 1138.19L2218.86 1151.96H2214.25L2207.62 1138.81H2201.43V1151.96H2197.35ZM2201.43 1122.11V1135.07H2206.9C2211.27 1135.07 2213.77 1133.39 2213.77 1128.59C2213.77 1123.45 2211.18 1122.11 2206.38 1122.11H2201.43Z" fill="white"/>
<path d="M2137.85 1211.96V1167.16H2152.31C2163.26 1167.16 2170.36 1174.4 2170.36 1189.44C2170.36 1203.2 2163.26 1211.96 2153.72 1211.96H2137.85ZM2145.85 1174.2V1204.92H2151.8C2160.25 1204.92 2162.17 1197.5 2162.17 1189.44C2162.17 1182.2 2160.25 1174.2 2151.8 1174.2H2145.85ZM2186.66 1192.64V1204.92H2203.75V1211.96H2178.6V1167.16H2203.75V1174.2H2186.66V1185.6H2202.34V1192.64H2186.66ZM2243.89 1211.96V1185.53H2243.64L2234.1 1204.6H2230.01L2220.47 1185.53H2220.21V1211.96H2212.6V1167.16H2218.81L2231.93 1192.96H2232.18L2245.37 1167.16H2251.51V1211.96H2243.89ZM2276 1212.48C2265.31 1212.48 2260.06 1206.2 2260.06 1196.6V1182.59C2260.06 1172.99 2265.31 1166.65 2276 1166.65C2286.69 1166.65 2291.87 1172.99 2291.87 1182.59V1196.6C2291.87 1206.2 2286.69 1212.48 2276 1212.48ZM2276 1205.12C2281.82 1205.12 2283.81 1201.92 2283.81 1195.9V1183.23C2283.81 1177.28 2281.82 1174.01 2276 1174.01C2270.24 1174.01 2268.13 1177.28 2268.13 1183.23V1195.9C2268.13 1201.92 2270.24 1205.12 2276 1205.12ZM2307 1183.23V1195.9C2307 1201.47 2309.18 1205.12 2315.07 1205.12C2318.33 1205.12 2320.89 1204.28 2323.19 1200.06L2329.47 1203.13C2326.46 1209.53 2322.17 1212.48 2315.07 1212.48C2303.74 1212.48 2298.94 1205.56 2298.94 1195.26V1183.87C2298.94 1173.56 2303.55 1166.65 2314.87 1166.65C2321.98 1166.65 2326.65 1169.92 2329.27 1175.87L2323 1179.13C2320.7 1175.29 2318.14 1174.01 2314.87 1174.01C2308.99 1174.01 2307 1177.66 2307 1183.23ZM2335.79 1211.96V1167.16H2349.29C2359.27 1167.16 2365.35 1171.13 2365.35 1181.37C2365.35 1189.63 2360.94 1192.89 2357.55 1194.24L2367.21 1211.96H2358.25L2349.87 1195.52H2343.79V1211.96H2335.79ZM2343.79 1174.2V1188.48H2349.55C2354.41 1188.48 2357.23 1186.68 2357.23 1181.37C2357.23 1175.74 2354.28 1174.2 2348.91 1174.2H2343.79ZM2395.04 1202.04H2381.09L2377.95 1211.96H2369.82L2384.29 1167.16H2391.84L2406.3 1211.96H2398.11L2395.04 1202.04ZM2382.94 1194.94H2393.18L2388.19 1178.49H2387.93L2382.94 1194.94ZM2418.5 1183.23V1195.9C2418.5 1201.47 2420.68 1205.12 2426.57 1205.12C2429.83 1205.12 2432.39 1204.28 2434.69 1200.06L2440.97 1203.13C2437.96 1209.53 2433.67 1212.48 2426.57 1212.48C2415.24 1212.48 2410.44 1205.56 2410.44 1195.26V1183.87C2410.44 1173.56 2415.05 1166.65 2426.37 1166.65C2433.48 1166.65 2438.15 1169.92 2440.77 1175.87L2434.5 1179.13C2432.2 1175.29 2429.64 1174.01 2426.37 1174.01C2420.49 1174.01 2418.5 1177.66 2418.5 1183.23ZM2456.82 1211.96V1195.07L2443.25 1167.16H2451.96L2460.73 1187.26H2460.98L2469.81 1167.16H2478.39L2464.89 1195.07V1211.96H2456.82Z" fill="white"/>
<path d="M2295.36 1261.18V1245.63H2281.2V1261.18H2277.12V1227.58H2281.2V1241.89H2295.36V1227.58H2299.44V1261.18H2295.36ZM2318.41 1233.87H2318.22L2313.37 1249.04H2323.26L2318.41 1233.87ZM2324.27 1252.83H2312.36L2309.72 1261.18H2305.45L2316.54 1227.58H2320.09L2331.23 1261.18C2331.23 1261.18 2331.23 1261.18 2326.91 1261.18L2324.27 1252.83ZM2344.8 1257.68C2349.79 1257.68 2351.42 1255.14 2351.42 1251.92C2351.42 1241.65 2335.34 1248.13 2335.34 1236.18C2335.34 1230.42 2338.75 1227.2 2345.04 1227.2C2348.35 1227.2 2351.52 1228.21 2354.16 1230.22L2352.33 1233.3C2349.69 1231.57 2347.15 1230.99 2345.04 1230.99C2340.33 1230.99 2339.33 1233.44 2339.33 1236.13C2339.33 1243.81 2355.41 1238.77 2355.41 1251.58C2355.41 1257.06 2352.43 1261.57 2344.8 1261.57C2341.25 1261.57 2337.5 1260.46 2334.62 1258.35L2336.49 1255.14C2338.89 1256.43 2341.34 1257.68 2344.8 1257.68ZM2375.09 1261.18V1227.58H2385.07C2391.41 1227.58 2394.77 1230.8 2394.77 1236.46C2394.77 1239.49 2392.94 1242.42 2390.4 1243.42V1243.62C2393.9 1244.43 2396.02 1247.17 2396.02 1251.63C2396.02 1256.96 2393.18 1261.18 2385.5 1261.18H2375.09ZM2379.17 1245.82V1257.44H2384.88C2389.54 1257.44 2391.84 1256.14 2391.84 1251.68C2391.84 1247.26 2389.39 1245.82 2385.22 1245.82H2379.17ZM2379.17 1231.33V1242.18H2385.07C2388.77 1242.18 2390.59 1240.11 2390.59 1236.7C2390.59 1233.2 2389.06 1231.33 2385.07 1231.33H2379.17ZM2407.01 1231.33V1242.18H2419.01V1245.92H2407.01V1257.44H2420.07V1261.18H2402.93V1227.58H2420.07V1231.33H2407.01ZM2431.71 1231.33V1242.18H2443.71V1245.92H2431.71V1257.44H2444.77V1261.18H2427.63V1227.58H2444.77V1231.33H2431.71ZM2452.34 1261.18V1227.58H2455.46L2471.15 1252.83H2471.39V1227.58H2475.23V1261.18H2471.68L2456.42 1236.37H2456.18V1261.18H2452.34Z" fill="white"/>
<path d="M2174.58 1345.18V1317.63H2155.76V1345.18H2139.83V1277.98H2155.76V1303.9H2174.58V1277.98H2190.52V1345.18H2174.58ZM2218.86 1277.98H2234.03L2255.34 1345.18H2238.64L2234.8 1332.03H2218.09L2214.25 1345.18H2197.55L2218.86 1277.98ZM2221.26 1318.3H2231.63L2226.64 1298.82H2226.25L2221.26 1318.3ZM2258.28 1321.28V1301.89C2258.28 1287.1 2266.63 1277.22 2283.81 1277.22C2296.96 1277.22 2303.3 1283.65 2307.33 1292.1L2294.66 1298.34C2292.84 1294.21 2289.96 1291.42 2284.48 1291.42C2277.19 1291.42 2274.4 1296.51 2274.4 1302.75V1320.42C2274.4 1326.66 2277.28 1331.74 2284.58 1331.74C2289.96 1331.74 2293.12 1329.15 2295.04 1324.74L2307.62 1331.17C2303.97 1339.62 2298.02 1345.95 2284 1345.95C2266.82 1345.95 2258.28 1336.06 2258.28 1321.28ZM2331.08 1277.98V1303.42H2334.05L2347.3 1277.98H2364.68L2346.92 1309.47L2365.64 1345.18H2348.26L2334.05 1317.25H2331.08V1345.18H2315.14V1277.98H2331.08ZM2413.51 1345.18H2372.33V1277.98H2413.51V1291.62H2388.26V1304.1H2411.3V1317.73H2388.26V1331.55H2413.51V1345.18ZM2424.83 1277.98H2448.64C2466.11 1277.98 2476.67 1288.16 2476.67 1311.39C2476.67 1332.8 2466.11 1345.18 2450.65 1345.18H2424.83V1277.98ZM2440.67 1291.62V1331.55H2447.39C2457.95 1331.55 2460.44 1321.76 2460.44 1311.1C2460.44 1301.6 2457.95 1291.62 2447.39 1291.62H2440.67Z" fill="#FF5555"/>
<mask id="mask0_1_2" style="mask-type:alpha" maskUnits="userSpaceOnUse" x="0" y="0" width="2560" height="1442">
<rect width="2560" height="1442" fill="#BD93F9"/>
</mask>
<g mask="url(#mask0_1_2)">
<mask id="mask1_1_2" style="mask-type:luminance" maskUnits="userSpaceOnUse" x="0" y="-80" width="2560" height="1600">
<path d="M2560 -80H0V1520H2560V-80Z" fill="white"/>
</mask>
<g mask="url(#mask1_1_2)">
<path d="M2583.33 -100.933H-23.3333V1540.93H2583.33V-100.933Z" fill="#282A36"/>
<path opacity="0.34" d="M6.66663 906.533C509.393 906.533 916.933 498.993 916.933 -3.7334C916.933 -506.46 509.393 -914 6.66663 -914C-496.06 -914 -903.6 -506.46 -903.6 -3.7334C-903.6 498.993 -496.06 906.533 6.66663 906.533Z" fill="url(#paint0_radial_1_2)"/>
<path opacity="0.34" d="M1832 -1186.13L2651.2 -224.267L417.467 1678.4L-401.733 716.667L1832 -1186.13Z" fill="url(#paint1_radial_1_2)"/>
<path opacity="0.34" d="M575.867 641.067C745.013 641.067 882.133 503.946 882.133 334.8C882.133 165.654 745.013 28.5333 575.867 28.5333C406.72 28.5333 269.6 165.654 269.6 334.8C269.6 503.946 406.72 641.067 575.867 641.067Z" fill="url(#paint2_radial_1_2)" fill-opacity="0.7"/>
<g opacity="0.71">
<path d="M1288.27 723.067C1286.53 723.067 1288.53 724 1290.93 724.267C1291.6 723.733 1292.13 723.333 1292.67 722.8C1291.2 723.067 1289.73 723.2 1288.27 723.067Z" fill="#FF5555"/>
<path d="M1297.73 720.667C1298.8 719.2 1299.6 717.6 1299.87 716C1299.6 717.2 1299.07 718.133 1298.4 719.2C1295.07 721.2 1298.13 718 1298.4 716.667C1294.8 721.2 1297.87 719.467 1297.73 720.667Z" fill="#FF5555"/>
<path d="M1301.2 711.6C1301.47 708.4 1300.53 709.467 1300.27 710.667C1300.67 710.8 1300.93 712.933 1301.2 711.6Z" fill="#FF5555"/>
<path d="M1281.6 668.4C1282.53 668.533 1283.6 668.667 1283.47 668.933C1284.53 668.667 1284.8 668.533 1281.6 668.4Z" fill="#FF5555"/>
<path d="M1312.67 712.8C1312.8 715.6 1311.87 717.067 1310.93 719.467L1309.47 720.267C1308.27 722.667 1309.6 721.733 1308.67 723.733C1306.67 725.467 1302.8 729.067 1301.47 729.467C1300.53 729.467 1302.13 728.4 1302.27 728C1299.73 729.733 1300.13 730.667 1296.27 731.733L1296.13 731.467C1286.4 736.133 1272.8 726.933 1272.93 714.533C1272.8 715.333 1272.67 715.067 1272.4 715.467C1271.87 709.067 1275.33 702.667 1281.2 700C1286.93 697.2 1293.6 698.267 1297.73 702.133C1295.47 699.2 1291.07 696.133 1285.73 696.4C1280.53 696.533 1275.73 699.733 1274 703.333C1271.33 705.067 1271.07 709.733 1269.87 710.667C1268.27 722.133 1272.8 727.067 1280.4 732.933C1281.6 733.733 1280.8 733.867 1280.93 734.533C1278.4 733.333 1276.13 731.6 1274.13 729.333C1275.2 730.8 1276.27 732.267 1277.6 733.333C1275.2 732.533 1272 727.6 1271.07 727.333C1275.2 734.667 1287.73 740.267 1294.27 737.467C1291.2 737.6 1287.33 737.467 1284 736.267C1282.53 735.467 1280.67 734 1280.93 733.733C1289.87 737.067 1299.2 736.267 1306.93 730C1308.93 728.4 1311.07 725.867 1311.73 725.867C1310.8 727.333 1311.87 726.533 1311.2 727.733C1313.2 724.533 1310.4 726.4 1313.2 722.267L1314.27 723.733C1313.87 721.067 1317.6 717.867 1317.2 713.733C1318 712.4 1318.13 715.067 1317.2 718C1318.4 714.8 1317.47 714.267 1317.87 711.6C1318.27 712.533 1318.67 713.467 1318.93 714.4C1318.13 711.2 1319.73 709.067 1320.13 707.333C1319.73 707.2 1318.93 708.667 1318.67 705.067C1318.67 703.467 1319.07 704.267 1319.33 703.867C1319.07 703.733 1318.13 702.4 1317.73 700.133C1318.13 699.6 1318.67 701.6 1319.2 701.6C1318.93 699.733 1318.27 698.267 1318.27 696.8C1316.8 693.733 1317.73 697.2 1316.53 695.467C1314.93 690.667 1317.87 694.4 1318 692.133C1320.4 695.467 1321.73 700.8 1322.27 702.933C1321.73 700.267 1321.07 697.733 1320.13 695.2C1320.8 695.467 1318.93 689.733 1321.07 693.6C1318.8 685.467 1311.6 677.867 1304.93 674.267C1305.73 675.067 1306.8 676 1306.4 676.133C1303.07 674.133 1303.6 674 1303.2 673.2C1300.53 672.133 1300.27 673.333 1298.53 673.2C1293.47 670.533 1292.4 670.8 1287.73 669.067L1288 670.133C1284.67 669.067 1284 670.533 1280.4 670.133C1280.13 670 1281.6 669.467 1282.67 669.333C1279.33 669.733 1279.6 668.667 1276.4 669.467C1277.2 668.933 1278 668.533 1278.8 668.133C1276.13 668.267 1272.4 669.733 1273.6 668.4C1269.2 670.4 1261.47 673.067 1257.2 677.067L1257.07 676.133C1255.07 678.533 1248.4 683.2 1247.87 686.4L1247.33 686.533C1246.27 688.267 1245.6 690.267 1244.8 692.133C1243.47 694.4 1242.8 693.067 1243.07 693.333C1240.4 698.667 1239.07 703.2 1238 706.933C1238.8 708.133 1238 714.267 1238.27 719.067C1236.93 743.2 1255.2 766.667 1275.2 772C1278.13 773.067 1282.53 773.067 1286.13 773.067C1281.73 771.867 1281.2 772.4 1276.93 770.933C1273.87 769.467 1273.2 767.867 1271.07 766L1271.87 767.467C1267.6 766 1269.33 765.6 1265.87 764.533L1266.8 763.333C1265.47 763.2 1263.2 761.067 1262.53 759.733H1261.07C1259.2 757.467 1258.27 755.867 1258.4 754.667L1257.87 755.6C1257.33 754.667 1251.2 747.2 1254.4 748.933C1253.87 748.4 1253.07 748 1252.13 746.533L1252.8 745.733C1251.33 743.733 1250 741.2 1250.13 740.4C1250.93 741.467 1251.47 741.733 1252.13 741.867C1248.27 732.267 1248 741.333 1245.07 732.133H1245.73C1245.2 731.467 1244.93 730.667 1244.53 729.867L1244.8 727.2C1242 724 1244 713.467 1244.4 707.733C1244.67 705.467 1246.67 702.933 1248.27 699.067L1247.33 698.933C1249.2 695.733 1257.73 686.267 1261.6 686.8C1263.47 684.4 1261.2 686.8 1260.8 686.133C1265.07 681.733 1266.27 683.067 1269.2 682.267C1272.27 680.4 1266.53 682.933 1268 681.6C1273.33 680.267 1271.73 678.533 1278.67 677.867C1279.33 678.267 1276.93 678.533 1276.4 679.067C1280.8 676.933 1290.4 677.467 1296.53 680.267C1303.73 683.6 1311.73 693.6 1312.13 702.933L1312.53 703.067C1312.4 706.8 1313.07 711.067 1311.73 715.067L1312.67 712.8Z" fill="#FF5555"/>
<path d="M1269.2 725.467L1268.93 726.667C1270.13 728.267 1271.07 729.867 1272.53 731.2C1271.33 729.067 1270.67 728.267 1269.2 725.467Z" fill="#FF5555"/>
<path d="M1271.87 725.333C1271.2 724.667 1270.93 723.867 1270.53 723.067C1270.93 724.533 1271.73 725.733 1272.4 726.933L1271.87 725.333Z" fill="#FF5555"/>
<path d="M1320.13 714.8L1319.87 715.467C1319.33 718.8 1318.4 722.133 1316.8 725.2C1318.53 722 1319.6 718.4 1320.13 714.8Z" fill="#FF5555"/>
<path d="M1282 667.6C1283.2 667.2 1284.93 667.333 1286.13 667.067C1284.53 667.2 1282.8 667.333 1281.2 667.467L1282 667.6Z" fill="#FF5555"/>
<path d="M1240.4 689.733C1240.67 692.267 1238.53 693.2 1240.93 691.6C1242.13 688.667 1240.4 690.8 1240.4 689.733Z" fill="#FF5555"/>
<path d="M1237.6 701.467C1238.13 699.733 1238.27 698.8 1238.4 697.733C1236.93 699.733 1237.73 700.133 1237.6 701.467Z" fill="#FF5555"/>
</g>
<g opacity="0.62">
<path opacity="0.34" d="M1021.6 1103.2C1149.14 1103.2 1252.53 994.853 1252.53 861.2C1252.53 727.547 1149.14 619.2 1021.6 619.2C894.059 619.2 790.667 727.547 790.667 861.2C790.667 994.853 894.059 1103.2 1021.6 1103.2Z" fill="url(#paint3_radial_1_2)"/>
<path opacity="0.34" d="M1080.93 204.4L1265.33 500.133L1180 554L933.733 429.2L1080.93 204.4Z" fill="url(#paint4_linear_1_2)"/>
<path opacity="0.34" d="M1334.67 465.6L1162.53 659.6L1046.4 372.667L1080.93 204.4L1207.47 268.667L1366.8 322.4L1334.67 465.6Z" fill="url(#paint5_linear_1_2)"/>
<path opacity="0.34" d="M838.933 533.2L1066.53 284.267L1252.67 497.467L611.067 818.4L838.933 533.2Z" fill="url(#paint6_linear_1_2)"/>
<path opacity="0.34" d="M1635.47 690.8L1318.27 413.6L1297.07 165.2L1615.87 522.267L1635.47 690.8Z" fill="url(#paint7_linear_1_2)"/>
<path opacity="0.34" d="M1318.27 413.6L1046.4 372.667L1185.6 283.067L1373.07 124.133L1611.87 545.6L1318.27 413.6Z" fill="url(#paint8_linear_1_2)"/>
<path opacity="0.34" d="M973.6 317.067L1297.07 165.2L1391.47 545.6L1280 494.8L973.6 317.067Z" fill="url(#paint9_linear_1_2)"/>
<path opacity="0.34" d="M1008.53 875.2L677.2 1270.8L695.2 988.8L876.133 708.133L1008.53 875.2Z" fill="url(#paint10_linear_1_2)"/>
<path opacity="0.34" d="M570.267 1106.27L529.333 826.533L932 774.4L1021.6 856.8L837.6 1109.33L688.133 1193.33L570.267 1106.27Z" fill="url(#paint11_linear_1_2)"/>
<path opacity="0.34" d="M611.067 818.4L1074.67 599.467L933.733 778.8L575.867 970.267L611.067 818.4Z" fill="url(#paint12_linear_1_2)"/>
<path opacity="0.34" d="M1191.2 1315.87L672.4 1152.67L695.2 988.8L987.2 972.667L1191.2 1315.87Z" fill="url(#paint13_linear_1_2)"/>
<path opacity="0.34" d="M611.067 818.4L710.933 506.133L1074.67 599.467L932 774.4L611.067 818.4Z" fill="url(#paint14_linear_1_2)"/>
<path opacity="0.34" d="M1162.53 661.333C1296.48 661.333 1405.07 547.554 1405.07 407.2C1405.07 266.846 1296.48 153.067 1162.53 153.067C1028.59 153.067 920 266.846 920 407.2C920 547.554 1028.59 661.333 1162.53 661.333Z" fill="url(#paint15_radial_1_2)" fill-opacity="0.7"/>
<path opacity="0.34" d="M668.533 850.8L1021.6 856.8L956.133 1248.13L837.6 1109.33L709.467 1130.67L668.533 850.8Z" fill="url(#paint16_linear_1_2)"/>
<path opacity="0.34" d="M973.6 460.533L1046.4 372.667L1063.87 551.333L710.933 506.133L973.6 460.533Z" fill="url(#paint17_linear_1_2)"/>
</g>
<path opacity="0.12" d="M2646 1670.8L2009.6 1175.07L2136 974.8L2854.27 1120.67L2646 1670.8Z" fill="url(#paint18_linear_1_2)"/>
<path opacity="0.12" d="M1884.93 1368.8L2074.67 759.733L2377.33 1321.47L2578.93 1588.67L2193.33 1675.6L1902.53 1720.4L1884.93 1368.8Z" fill="url(#paint19_linear_1_2)"/>
<path opacity="0.12" d="M2660.27 935.867L2317.2 1525.73L2135.47 889.733L2577.73 643.467L2660.27 935.867Z" fill="url(#paint20_linear_1_2)"/>
<path opacity="0.12" d="M2803.73 1502L2343.2 1305.73L2418.67 745.067L2673.07 1161.07L2803.73 1502Z" fill="url(#paint21_linear_1_2)"/>
<path opacity="0.12" d="M2757.87 1114.4L2570.53 1605.6L1951.87 1037.2L2162 1035.33L2757.87 1114.4Z" fill="url(#paint22_linear_1_2)"/>
<path opacity="0.12" d="M2020.27 1243.07L2644.53 1686.27L2218.13 1623.07L2020.27 1243.07Z" fill="url(#paint23_linear_1_2)"/>
<path opacity="0.12" d="M551.733 -68.8L434.533 263.2L34.9333 195.2L368.933 -100.533L551.733 -68.8Z" fill="url(#paint24_linear_1_2)"/>
<path opacity="0.12" d="M718.133 93.3333L240.4 238L-3.59998 -153.467L427.467 -42.5333L718.133 93.3333Z" fill="url(#paint25_linear_1_2)"/>
<path opacity="0.12" d="M472.933 -76.6666L589.2 336.533L-218 341.733L-50 219.067L472.933 -76.6666Z" fill="url(#paint26_linear_1_2)"/>
<path opacity="0.12" d="M92 291.733L835.733 205.467L457.867 412.933L92 291.733Z" fill="url(#paint27_linear_1_2)"/>
<path opacity="0.12" d="M1164.4 1713.73L1581.07 1091.6L1494 1513.73L1164.4 1713.73Z" fill="url(#paint28_linear_1_2)"/>
</g>
</g>
</g>
<defs>
<radialGradient id="paint0_radial_1_2" cx="0" cy="0" r="1" gradientUnits="userSpaceOnUse" gradientTransform="translate(6.6667 -3.73345) scale(910.267)">
<stop stop-color="#BD93F9"/>
<stop offset="1" stop-color="#05475C" stop-opacity="0"/>
</radialGradient>
<radialGradient id="paint1_radial_1_2" cx="0" cy="0" r="1" gradientUnits="userSpaceOnUse" gradientTransform="translate(1128.86 244.797) rotate(139.57) scale(1696.83 565.621)">
<stop stop-color="#BD93F9"/>
<stop offset="1" stop-color="#05475C" stop-opacity="0"/>
</radialGradient>
<radialGradient id="paint2_radial_1_2" cx="0" cy="0" r="1" gradientUnits="userSpaceOnUse" gradientTransform="translate(575.867 334.8) scale(306.267)">
<stop stop-color="#BD93F9"/>
<stop offset="1" stop-color="#05475C" stop-opacity="0"/>
</radialGradient>
<radialGradient id="paint3_radial_1_2" cx="0" cy="0" r="1" gradientUnits="userSpaceOnUse" gradientTransform="translate(1005.75 897.678) rotate(31.1719) scale(233.304 240.225)">
<stop stop-color="#BD93F9"/>
<stop offset="1" stop-color="#05475C" stop-opacity="0"/>
</radialGradient>
<linearGradient id="paint4_linear_1_2" x1="1199.74" y1="326.214" x2="1012.11" y2="509.652" gradientUnits="userSpaceOnUse">
<stop stop-color="#BD93F9"/>
<stop offset="1" stop-color="#05475C" stop-opacity="0"/>
</linearGradient>
<linearGradient id="paint5_linear_1_2" x1="1013.95" y1="288.01" x2="1295.02" y2="515.426" gradientUnits="userSpaceOnUse">
<stop stop-color="#BD93F9"/>
<stop offset="1" stop-color="#05475C" stop-opacity="0"/>
</linearGradient>
<linearGradient id="paint6_linear_1_2" x1="825.246" y1="909.655" x2="1087.48" y2="293.286" gradientUnits="userSpaceOnUse">
<stop stop-color="#BD93F9"/>
<stop offset="1" stop-color="#05475C" stop-opacity="0"/>
</linearGradient>
<linearGradient id="paint7_linear_1_2" x1="1513.13" y1="351.149" x2="1391.11" y2="499.627" gradientUnits="userSpaceOnUse">
<stop stop-color="#BD93F9"/>
<stop offset="1" stop-color="#05475C" stop-opacity="0"/>
</linearGradient>
<linearGradient id="paint8_linear_1_2" x1="1227.63" y1="558.073" x2="1518.91" y2="273.351" gradientUnits="userSpaceOnUse">
<stop stop-color="#BD93F9"/>
<stop offset="1" stop-color="#05475C" stop-opacity="0"/>
</linearGradient>
<linearGradient id="paint9_linear_1_2" x1="1348.98" y1="203.396" x2="1164.13" y2="456.508" gradientUnits="userSpaceOnUse">
<stop stop-color="#BD93F9"/>
<stop offset="1" stop-color="#05475C" stop-opacity="0"/>
</linearGradient>
<linearGradient id="paint10_linear_1_2" x1="881.598" y1="1215.15" x2="750.507" y2="744.361" gradientUnits="userSpaceOnUse">
<stop stop-color="#BD93F9"/>
<stop offset="1" stop-color="#05475C" stop-opacity="0"/>
</linearGradient>
<linearGradient id="paint11_linear_1_2" x1="1015.77" y1="843.51" x2="541.661" y2="1037.26" gradientUnits="userSpaceOnUse">
<stop stop-color="#BD93F9"/>
<stop offset="1" stop-color="#05475C" stop-opacity="0"/>
</linearGradient>
<linearGradient id="paint12_linear_1_2" x1="905.864" y1="875.112" x2="844.602" y2="692.759" gradientUnits="userSpaceOnUse">
<stop stop-color="#BD93F9"/>
<stop offset="1" stop-color="#05475C" stop-opacity="0"/>
</linearGradient>
<linearGradient id="paint13_linear_1_2" x1="775.698" y1="967.393" x2="821.224" y2="1353.08" gradientUnits="userSpaceOnUse">
<stop stop-color="#BD93F9"/>
<stop offset="1" stop-color="#05475C" stop-opacity="0"/>
</linearGradient>
<linearGradient id="paint14_linear_1_2" x1="754.288" y1="879.466" x2="904.221" y2="527.057" gradientUnits="userSpaceOnUse">
<stop stop-color="#BD93F9"/>
<stop offset="1" stop-color="#05475C" stop-opacity="0"/>
</linearGradient>
<radialGradient id="paint15_radial_1_2" cx="0" cy="0" r="1" gradientUnits="userSpaceOnUse" gradientTransform="translate(1147.97 441.947) rotate(31.1719) scale(245.02 252.289)">
<stop stop-color="#BD93F9"/>
<stop offset="1" stop-color="#05475C" stop-opacity="0"/>
</radialGradient>
<linearGradient id="paint16_linear_1_2" x1="1058.76" y1="948.691" x2="695.379" y2="1097.19" gradientUnits="userSpaceOnUse">
<stop stop-color="#BD93F9"/>
<stop offset="1" stop-color="#05475C" stop-opacity="0"/>
</linearGradient>
<linearGradient id="paint17_linear_1_2" x1="716.16" y1="531.302" x2="1064.35" y2="460.078" gradientUnits="userSpaceOnUse">
<stop stop-color="#BD93F9"/>
<stop offset="1" stop-color="#05475C" stop-opacity="0"/>
</linearGradient>
<linearGradient id="paint18_linear_1_2" x1="2289.05" y1="1507.98" x2="2533.88" y2="974.646" gradientUnits="userSpaceOnUse">
<stop stop-color="#BD93F9"/>
<stop offset="1" stop-color="#05475C" stop-opacity="0"/>
</linearGradient>
<linearGradient id="paint19_linear_1_2" x1="2624.52" y1="1446.73" x2="1924.86" y2="1219.5" gradientUnits="userSpaceOnUse">
<stop stop-color="#BD93F9"/>
<stop offset="1" stop-color="#05475C" stop-opacity="0"/>
</linearGradient>
<linearGradient id="paint20_linear_1_2" x1="2407.68" y1="637.523" x2="2375.65" y2="1528.05" gradientUnits="userSpaceOnUse">
<stop stop-color="#BD93F9"/>
<stop offset="1" stop-color="#05475C" stop-opacity="0"/>
</linearGradient>
<linearGradient id="paint21_linear_1_2" x1="2644.1" y1="810.061" x2="2481.1" y2="1423.76" gradientUnits="userSpaceOnUse">
<stop stop-color="#BD93F9"/>
<stop offset="1" stop-color="#05475C" stop-opacity="0"/>
</linearGradient>
<linearGradient id="paint22_linear_1_2" x1="2235.85" y1="1515.17" x2="2372.48" y2="1010.25" gradientUnits="userSpaceOnUse">
<stop stop-color="#BD93F9"/>
<stop offset="1" stop-color="#05475C" stop-opacity="0"/>
</linearGradient>
<linearGradient id="paint23_linear_1_2" x1="2053.16" y1="1500.31" x2="2611.59" y2="1428.87" gradientUnits="userSpaceOnUse">
<stop stop-color="#BD93F9"/>
<stop offset="1" stop-color="#05475C" stop-opacity="0"/>
</linearGradient>
<linearGradient id="paint24_linear_1_2" x1="200.761" y1="-19.0668" x2="379.342" y2="277.571" gradientUnits="userSpaceOnUse">
<stop stop-color="#BD93F9"/>
<stop offset="1" stop-color="#05475C" stop-opacity="0"/>
</linearGradient>
<linearGradient id="paint25_linear_1_2" x1="224.252" y1="-245.173" x2="432.413" y2="229.129" gradientUnits="userSpaceOnUse">
<stop stop-color="#BD93F9"/>
<stop offset="1" stop-color="#05475C" stop-opacity="0"/>
</linearGradient>
<linearGradient id="paint26_linear_1_2" x1="274.876" y1="472.143" x2="105.752" y2="81.8743" gradientUnits="userSpaceOnUse">
<stop stop-color="#BD93F9"/>
<stop offset="1" stop-color="#05475C" stop-opacity="0"/>
</linearGradient>
<linearGradient id="paint27_linear_1_2" x1="261.909" y1="456.496" x2="665.72" y2="40.3919" gradientUnits="userSpaceOnUse">
<stop stop-color="#BD93F9"/>
<stop offset="1" stop-color="#05475C" stop-opacity="0"/>
</linearGradient>
<linearGradient id="paint28_linear_1_2" x1="1400.21" y1="1691.31" x2="1345.24" y2="1114.09" gradientUnits="userSpaceOnUse">
<stop stop-color="#BD93F9"/>
<stop offset="1" stop-color="#05475C" stop-opacity="0"/>
</linearGradient>
<clipPath id="clip0_1_2">
<rect width="2560" height="1440" fill="white"/>
</clipPath>
</defs>
</svg>
